<?xml version="1.0" encoding="UTF-8"?>
<svg width="1040px" height="1040px" viewBox="0 0 1040 1040" version="1.1" xmlns="http://www.w3.org/2000/svg" xmlns:xlink="http://www.w3.org/1999/xlink">
    <title>Logo</title>
    <desc>logo文件</desc>
    <g id="页面-1" stroke="none" stroke-width="1" fill="none" fill-rule="evenodd">
        <path d="M620,252 L520,502 L420,252 L520,2 L620,252 Z M780.215295,401.206061 L532.727922,507.272078 L638.793939,259.784705 L886.281313,153.718687 L780.215295,401.206061 Z M788,620 L538,520 L788,420 L1038,520 L788,620 Z M638.793939,780.215295 L532.727922,532.727922 L780.215295,638.793939 L886.281313,886.281313 L638.793939,780.215295 Z M420,788 L520,538 L620,788 L520,1038 L420,788 Z M259.784705,638.793939 L507.272078,532.727922 L401.206061,780.215295 L153.718687,886.281313 L259.784705,638.793939 Z M252,420 L502,520 L252,620 L2,520 L252,420 Z M401.206061,259.784705 L507.272078,507.272078 L259.784705,401.206061 L153.718687,153.718687 L401.206061,259.784705 Z" id="合并形状" stroke="#979797" fill="rgba(0,0,0,0.7)"></path>
    </g>
</svg>